<svg width="51" height="50" viewBox="0 0 51 50" fill="none" xmlns="http://www.w3.org/2000/svg">
<mask id="mask0_18_49" style="mask-type:alpha" maskUnits="userSpaceOnUse" x="0" y="0" width="51" height="50">
<rect x="0.5" width="50" height="50" fill="#D9D9D9"/>
</mask>
<g mask="url(#mask0_18_49)">
<path d="M11.9583 25.8333L3.83328 17.7083L11.9583 9.58331L20.0833 17.7083L11.9583 25.8333ZM19.25 45.8333V35.4166C17.1319 35.243 15.0312 34.9913 12.9479 34.6614C10.8645 34.3316 8.79856 33.8889 6.74995 33.3333L7.79162 29.1666C10.7083 29.9653 13.6336 30.5121 16.5677 30.8073C19.5017 31.1024 22.4791 31.25 25.5 31.25C28.5208 31.25 31.4982 31.1024 34.4322 30.8073C37.3663 30.5121 40.2916 29.9653 43.2083 29.1666L44.25 33.3333C42.2013 33.8889 40.1354 34.3316 38.052 34.6614C35.9687 34.9913 33.868 35.243 31.75 35.4166V45.8333H19.25ZM11.9583 20L14.25 17.7083L11.9583 15.4166L9.66662 17.7083L11.9583 20ZM25.5 14.5833C23.7638 14.5833 22.2881 13.9757 21.0729 12.7604C19.8576 11.5451 19.25 10.0694 19.25 8.33331C19.25 6.5972 19.8576 5.12151 21.0729 3.90623C22.2881 2.69095 23.7638 2.08331 25.5 2.08331C27.2361 2.08331 28.7118 2.69095 29.927 3.90623C31.1423 5.12151 31.75 6.5972 31.75 8.33331C31.75 10.0694 31.1423 11.5451 29.927 12.7604C28.7118 13.9757 27.2361 14.5833 25.5 14.5833ZM25.5 29.1666C24.3541 29.1666 23.3732 28.7587 22.5572 27.9427C21.7413 27.1267 21.3333 26.1458 21.3333 25C21.3333 23.8541 21.7413 22.8732 22.5572 22.0573C23.3732 21.2413 24.3541 20.8333 25.5 20.8333C26.6458 20.8333 27.6267 21.2413 28.4427 22.0573C29.2586 22.8732 29.6666 23.8541 29.6666 25C29.6666 26.1458 29.2586 27.1267 28.4427 27.9427C27.6267 28.7587 26.6458 29.1666 25.5 29.1666ZM25.5 10.4166C26.0902 10.4166 26.585 10.217 26.9843 9.81769C27.3836 9.41838 27.5833 8.92359 27.5833 8.33331C27.5833 7.74303 27.3836 7.24824 26.9843 6.84894C26.585 6.44963 26.0902 6.24998 25.5 6.24998C24.9097 6.24998 24.4149 6.44963 24.0156 6.84894C23.6163 7.24824 23.4166 7.74303 23.4166 8.33331C23.4166 8.92359 23.6163 9.41838 24.0156 9.81769C24.4149 10.217 24.9097 10.4166 25.5 10.4166ZM36.0208 25L32.4791 18.75L36.0208 12.5H43.1041L46.6458 18.75L43.1041 25H36.0208ZM38.4166 20.8333H40.7083L41.8541 18.75L40.7083 16.6666H38.4166L37.2708 18.75L38.4166 20.8333Z" fill="white"/>
</g>
</svg>
