<svg width="76" height="76" viewBox="0 0 76 76" fill="none" xmlns="http://www.w3.org/2000/svg">
<g opacity="0.3" filter="url(#filter0_f_630_425)">
<circle cx="38" cy="38" r="24" fill="#16F6CA"/>
<circle cx="38" cy="38" r="25" stroke="#16F6CA" stroke-width="2"/>
</g>
<circle cx="38" cy="38" r="25" fill="#16F6CA" stroke="#16F6CA" stroke-width="2"/>
<path fill-rule="evenodd" clip-rule="evenodd" d="M38 28.4C36.3076 28.3996 34.6452 28.8467 33.1812 29.6958C31.7173 30.5449 30.5038 31.766 29.6638 33.2352C28.8238 34.7044 28.3871 36.3696 28.3981 38.062C28.409 39.7543 28.8671 41.4137 29.726 42.872L30.4088 43.7336L29.5724 46.5644L32.3564 45.7868L32.8112 46.0784C34.0663 46.8842 35.492 47.3865 36.975 47.5454C38.4581 47.7043 39.9577 47.5154 41.3551 46.9938C42.7524 46.4721 44.009 45.6321 45.0251 44.5402C46.0413 43.4484 46.789 42.1348 47.2091 40.7037C47.6292 39.2725 47.71 37.7631 47.4451 36.2953C47.1803 34.8275 46.577 33.4416 45.6833 32.2475C44.7895 31.0534 43.6298 30.0839 42.2961 29.4161C40.9625 28.7483 39.4915 28.4004 38 28.4ZM26 38C26 31.3724 31.3724 26 38 26C44.6276 26 50 31.3724 50 38C50 44.6276 44.6276 50 38 50C35.886 50.003 33.809 49.4453 31.9808 48.3836L26.0432 50.042L27.7544 44.2472L27.7472 44.2388L27.7076 44.1728C26.5873 42.3089 25.9969 40.1746 26 38Z" fill="#01141D"/>
<path d="M43.682 39.7905C43.6364 39.7689 41.8856 38.9073 41.5748 38.7945C41.4451 38.7411 41.307 38.7106 41.1668 38.7045C40.9316 38.7045 40.7324 38.8221 40.5788 39.0537C40.4036 39.3141 39.8744 39.9321 39.7112 40.1169C39.6896 40.1409 39.6608 40.1709 39.6428 40.1709C39.6272 40.1709 39.356 40.0593 39.2744 40.0233C37.3976 39.2073 35.9732 37.2477 35.7776 36.9165C35.75 36.8685 35.7488 36.8481 35.7488 36.8481C35.7548 36.8229 35.8184 36.7593 35.8508 36.7269C35.9468 36.6321 36.05 36.5085 36.1496 36.3873L36.29 36.2193C36.4352 36.0513 36.5 35.9193 36.5744 35.7693L36.614 35.6901C36.6734 35.57 36.7023 35.4371 36.6981 35.3031C36.6939 35.1692 36.6568 35.0383 36.59 34.9221C36.5492 34.8393 35.81 33.0561 35.732 32.8689C35.5424 32.4165 35.2928 32.2065 34.946 32.2065C34.9136 32.2065 34.946 32.2065 34.8116 32.2125C34.6472 32.2185 33.752 32.3373 33.356 32.5857C32.936 32.8497 32.228 33.6945 32.228 35.1777C32.228 36.5121 33.074 37.7721 33.4376 38.2509L33.4868 38.3229C34.88 40.3569 36.6164 41.8641 38.3756 42.5673C40.07 43.2441 40.8728 43.3233 41.3288 43.3233C41.5208 43.3233 41.6744 43.3077 41.8088 43.2945L41.8952 43.2861C42.4808 43.2345 43.7672 42.5673 44.06 41.7549C44.2904 41.1141 44.3516 40.4145 44.198 40.1601C44.0924 39.9873 43.9112 39.9009 43.682 39.7905Z" fill="#01141D"/>
<defs>
<filter id="filter0_f_630_425" x="0.8" y="0.8" width="74.4" height="74.4" filterUnits="userSpaceOnUse" color-interpolation-filters="sRGB">
<feFlood flood-opacity="0" result="BackgroundImageFix"/>
<feBlend mode="normal" in="SourceGraphic" in2="BackgroundImageFix" result="shape"/>
<feGaussianBlur stdDeviation="5.6" result="effect1_foregroundBlur_630_425"/>
</filter>
</defs>
</svg>
